<?xml version="1.0" encoding="utf-8"?>
<!-- Generator: Adobe Illustrator 25.2.3, SVG Export Plug-In . SVG Version: 6.00 Build 0)  -->
<svg version="1.1" id="Layer_1" xmlns="http://www.w3.org/2000/svg" xmlns:xlink="http://www.w3.org/1999/xlink" x="0px" y="0px"
	 viewBox="0 0 30.66 54.09" style="enable-background:new 0 0 30.66 54.09;" xml:space="preserve">
<style type="text/css">
	.st0{fill:#E11D3F;}
</style>
<path class="st0" d="M3.69,40.74L3.69,40.74c-0.04,0-0.09-0.01-0.13-0.01L3.69,40.74z"/>
<path class="st0" d="M3.55,40.73l0.12-0.1c0-0.01,0-0.01,0-0.02L3.55,40.73z"/>
<g>
	<path d="M24.25,36.62c-1.3-2.94-4.12-5.07-4.39-8.52c0.34-1.59,1.25-2.83,2.37-3.97c1.2-1.23,2.55-2.71,2.54-4.31
		c-0.02-2.07,1.04-3.42,1.97-4.93c1.09-1.78,2.16-3.57,2.84-5.26c0.06-1.43-1.26-1.42-1.62-2.24c0.35-0.9,0.69-1.8,1.04-2.7
		c-1.69,1.5-3.47,2.59-5.15,3.23c-3.14,3.62-4.4,8.15-7.69,11.86C12.52,13.47,9.17,7.64,5.78,1.74C5.73,2.17,5.59,2.57,5.66,2.93
		C6.15,5.62,6.79,8.27,6,11.05c-0.19,0.67,0.25,1.52,0.43,2.28c1.18,5.02,4.12,9.26,6.07,14.15c-1.77,5.12-3.73,10.37-8.22,14.14
		l0,0.01L4.06,41.8c0.01,0.03,0.01,0.07,0.02,0.11c0.44,0.03,0.87,0.05,1.23,0.08c0.46,1.08,0.2,1.57-0.82,1.56l-0.7,3.93
		c0,0,0,0,0,0c0,0.01,0,0.02-0.01,0.02l-0.01,0.06l-0.01,0c-0.41,1.98-1.89,3.02-2.68,4.79c1.92-0.58,2.67-2.42,4.32-2.77
		c1.19,0.09,1.46,1.49,2.53,1.72c0.09,0.31,0.18,0.62,0.3,1.01C8.71,51.71,8.6,51.4,8,51.23c0.31-1.39-1.03-2.38-0.91-4.04
		c0.81-0.99,1.78-2.17,2.84-3.46c0.36,0.63,0.6,1.06,0.82,1.44c2.81-2.9,3.3-7.23,6.11-10.71c1.25,2.55,2.57,4.47,3.82,6.44
		c2.34,3.68,5.65,6.78,6.88,11.46l0.48-6.12C25.96,42.92,25.56,39.6,24.25,36.62z"/>
</g>
</svg>
