<?xml version="1.0" encoding="utf-8"?>
<!-- Generator: Adobe Illustrator 25.2.3, SVG Export Plug-In . SVG Version: 6.00 Build 0)  -->
<svg version="1.1" id="Layer_1" xmlns="http://www.w3.org/2000/svg" xmlns:xlink="http://www.w3.org/1999/xlink" x="0px" y="0px"
	 viewBox="0 0 198.56 64.22" style="enable-background:new 0 0 198.56 64.22;" xml:space="preserve">
<style type="text/css">
	.st0{fill:#FFFFFF;}
</style>
<g>
	<g>
		<path class="st0" d="M107.18,19.29c1.3-4.5,2.12-9.14,4.18-13.4c0.57-1.18,0.83-2.41,0.66-3.71c-1.04,0.18-1.15,1.18-1.55,1.89
			c-1.42,2.55-2.82,5.11-4.26,7.74c-0.69-0.86-0.29-1.75-0.49-2.54c-0.52,0.22-0.6,0.71-0.73,1.19c-1,3.8-1.76,7.64-2.29,11.53
			c-0.45,3.33-2.02,6.22-3.52,9.27c-1.4-1.13-2.3-2.38-1.97-3.62c0.62-2.29-0.42-4.07-1.27-5.88c-1.68-3.59-2.76-7.34-3.58-11.18
			C92.12,9.5,91.95,8.46,91,7.4c-0.19,2-0.12,3.67-0.95,5.27c-0.78,1.5-0.7,3.24-0.72,4.96c-0.05,4.71-0.31,9.44-1.74,13.97
			c-1.76,5.62-3.55,11.21-3.65,17.18c-0.02,0.94-0.33,1.87-0.6,3.32c-2.08-3.31-2.48-6.64-3.79-9.61c-1.3-2.94-4.12-5.07-4.39-8.52
			c0.34-1.59,1.25-2.83,2.37-3.97c1.2-1.23,2.55-2.71,2.54-4.31c-0.02-2.07,1.04-3.42,1.97-4.93c1.09-1.78,2.16-3.57,2.84-5.26
			c0.06-1.43-1.26-1.42-1.62-2.24c0.35-0.9,0.69-1.8,1.04-2.7c-1.69,1.5-3.47,2.59-5.15,3.23c-3.14,3.62-4.4,8.15-7.69,11.86
			c-3.63-6.32-6.98-12.14-10.37-18.05c-0.05,0.43-0.19,0.83-0.12,1.18c0.5,2.69,1.13,5.35,0.35,8.12c-0.19,0.67,0.25,1.52,0.43,2.28
			c1.18,5.02,4.12,9.26,6.07,14.15c-1.8,5.2-3.79,10.54-8.43,14.32l-0.01-0.01c0.01,0.04,0.01,0.08,0.02,0.12
			c0.44,0.03,0.87,0.05,1.23,0.08c0.46,1.08,0.2,1.57-0.82,1.56c-0.6-0.44-0.33-1.08-0.41-1.63c-0.04,0-0.09-0.01-0.13-0.01
			l0.11-0.11c-1.13-0.63-1.3-1.89-1.88-2.88c-1.66-2.8-2.34-6.11-4.88-8.68c0.67-1.59-0.47-3.22,0.05-5c2.1-1.18,3.67-2.88,4.8-4.87
			c0.59-2.09,1.15-4.1,1.66-5.94c-0.22-1.1-0.39-2-0.6-2.89c-0.06-0.24-0.22-0.46-0.33-0.69c-3.22-1.3-3.22-1.3-4.34-2.61
			c-0.67-0.18-1.39,1.03-2.02-0.07c0.33-2.15,0.66-4.29,1.05-6.81c-0.49,0.67-0.82,0.95-0.93,1.3c-1.25,4.07-4.39,5.25-8.2,5.31
			c-2.22,0.03-4.4,0.29-6.55,0.71c-0.85-1.17-1.6-2.21-2.36-3.25c0-1.25,0-2.41,0-4.1c-1.36,2.59-1.83,5.04-3.12,6.94
			c-2.04,1.19-4.7-0.54-6.13,1.76c-1.44-0.27-2.72-0.51-4.14-0.77c-1.21-2.3-3.45-2.83-5.85-2.99c-3.72-0.24-6.68,1.23-8.62,4.36
			c-0.66,1.06-1.36,1.73-2.46,2.04c-0.5,3.09-0.25,6.04,0.86,8.95c2.89,3.95,6.91,7.12,8.74,11.92c0.51-0.17,1.01-0.26,1.29,0.38
			c0.59,1.46,0.19,2.8-0.47,4.15c-1.71,1.37-3.33,2.98-5.77,2.33c-0.27-0.29-0.46-0.47-0.63-0.68c-2.03-2.53-1.67-5.37-1.11-8.25
			c0.06-0.29,0.11-0.72-0.44-0.8c-0.45,0.91-0.9,1.83-1.42,2.91c-0.31-0.64-0.54-1.1-0.76-1.56c-0.33,0.09-0.66,0.18-1.02,0.27
			c-0.15-1.3,0.77-2.47,0.5-3.77c-1.53,0.66-1.78,2.17-2.04,3.49c-0.43,2.2-0.12,4.43,0.17,6.65c0.32,2.46,1.22,4.51,3.24,5.81
			c1.96,0.58,3.83,0.33,5.8,0.22c-0.63,1.13-1.82,0.89-2.77,1.64c7.64,0.17,11.23-3.01,12.69-10.93c-0.46-2.05-1.66-3.78-2.9-5.46
			c-1.24-1.67-2.51-3.3-2.24-5.41c-2.73-2.4-5.51-4.46-6.46-8.02c0.25-2.67,0.25-2.67,1.78-4.92c4.18-0.99,7.17,1.32,8.41,6.47
			c1.37-0.06,1.07,1.79,2.09,2.26c1.61-2.73,0.81-5.42,0.54-8.27c1.66,0.65,2.95,1.15,4.25,1.65c-0.24,0.53-0.39,0.86-0.54,1.2
			c1.4,0.58,3.22-0.27,4.64,1.59c-1.92,9.51-2.41,19.49-3.6,29.43c2.24-3.11,2.41-7.18,5.04-10.09c0.99-6.95,2.26-13.88,3.98-21.19
			c2.89-0.36,6.11-0.56,9.11-2.24c-1.13,5.06-1.7,10.09-3.65,14.77c-1.11,0.48-2.05,0.93-3.03,1.28c-0.96,0.34-2,0.47-2.89,1.39
			c2.11-0.06,4.09-0.54,5.9,0.67c0.29,1.35-0.52,2.52-0.67,3.79c-0.7,5.89-1.48,11.76-2.23,17.64c0.12-0.01,0.25,0,0.28-0.06
			c3.31-5.92,6.07-12.03,6.66-18.91c0.11-1.24,0.3-2.45,1.51-3.66c1.6,5.3,4.95,9.05,8.24,12.88c1.42,1.65,2.43,3.65,3.48,5.28
			c-0.39,2.04-1.9,3.08-2.71,4.87c1.92-0.58,2.67-2.42,4.32-2.77c1.19,0.09,1.46,1.49,2.53,1.72c0.09,0.31,0.18,0.62,0.3,1.01
			c0.48-0.58,0.37-0.9-0.23-1.06c0.31-1.39-1.03-2.38-0.91-4.04c0.81-0.99,1.78-2.17,2.84-3.46c0.36,0.63,0.6,1.06,0.82,1.44
			c2.81-2.9,3.3-7.23,6.11-10.71c1.25,2.55,2.57,4.47,3.82,6.44c2.34,3.68,5.65,6.78,6.88,11.46c-0.35,1.61-0.77,3.5-1.19,5.39
			c3.52-3.81,3.87-8.98,6.52-13.17c2.54-4.02,2.68-9.07,4.36-13.99c2.52,4.4,3.26,8.72,4.64,12.89c-0.05,3.21-1.35,6.36-0.92,9.67
			c0.02,0.13,0.26,0.24,0.5,0.43c0.18-1.11,0.34-2.13,0.5-3.17c1.68-0.13,1.58-1.93,2.62-2.61c1.3,0.97,1.67,2.91,3.47,3.29
			c-0.44-2.01-1.03-3.92-0.58-6.14c0.76-3.79,0.49-7.74,1.54-11.53c1.6-5.75,2.77-11.59,3.78-17.6
			C108.02,20.89,106.97,20.31,107.18,19.29z M49.83,26.49c-0.38-2.55,0.61-4.89,1.01-7.41c0.89,0.77,2.01-0.15,2.94,0.68
			c0.87,2.53-0.37,4.71-1.56,6.84C51.82,27.3,50.9,27.34,49.83,26.49z"/>
		<path class="st0" d="M136.15,52.8c0.77,1.34-0.2,2.56,0.46,3.48c2.86-0.72,4.31-3.17,6.49-4.54c2.57-0.64,5.09-1.26,7.82-1.94
			c-0.59-0.43-0.99-0.73-1.58-1.16c2.19-0.74,4.25-1.43,6.4-2.16c1.71,4.35-1.11,8.2-0.92,12.85c1.41-3.03,2.63-5.48,3.7-8.01
			c1.12-2.65,1.99-5.38,2.9-8.11c0.84-2.52-0.11-5.46,2.06-8.14c1.2,3.69,3.11,6.5,5.15,9.29c1.39,1.91,3.42,3.26,4.45,5.43
			c1.57,3.32,4.31,5.65,7.16,8.71c-1.3-4.57-3.96-7.74-5.61-11.42c-1.69-3.79-3.04-7.8-5.72-10.9c-0.24-1.75-0.36-3.31-0.1-5.03
			c5.22-3.42,6.81-8.39,5.84-14.6c-2.47-0.31-4.13-2.33-6.68-2.41c-0.37-1.96,0.88-3.75,0.68-5.68c-0.59,0.03-0.8,0.52-0.98,0.96
			c-1.03,2.5-2.79,3.97-5.51,4.42c-1.38,0.23-2.69,0.86-4.12,1.34c1.18,1.28,3.73,0.76,3.42,3.5c-2.39,0.16-4.46-0.08-6.55-1.07
			c-1.94-0.92-4.44,0.77-6.18-0.95c-0.69-1.47,0.63-2.72-0.06-4.03c-1.86,1.45-2.7,3.7-3.94,5.17c-1.85,0.97-3.44-0.1-4.97,0.38
			c0.76,0.87,2.15,0.81,2.91,2.15c-1.72,1.12,0.75,2.31-0.01,3.83c-0.68,1.36-0.8,3-1.1,4.53c-0.3,1.52-0.51,3.06-0.73,4.43
			c-0.89,0.59-1.57,1.04-1.86,1.23c0.36,3.09,1.75,5.64-0.72,8.19c-0.76,0.79-0.65,2.46-0.87,3.74c-0.22,1.27,0.19,2.63-0.73,4.16
			 M132.5,42.44c0.22-0.92,0.92-3.97,0.53-4.81c-0.22-0.48-0.53-0.9-0.36-1.4c1.21-3.4,0.83-7.32,3.51-10.18
			c-0.98-0.75-0.36-1.96-0.71-2.51c-5.15,2.42-10.38,3.86-15.4,5.72c0.26,0.27,0.58,0.62,0.86,0.92c0.06,0.92-1.06,0.81-1.16,1.54
			c2.82,0.72,5.57-1.1,8.51-0.46c0.74,3.72,0.05,7.06-0.84,10.52c-0.37-0.5-0.63-0.84-0.91-1.21c-0.32,0.66-0.17,1.44-0.89,1.78
			c-5.18,0.06-5.35,0-6.88-2.29c0.35-0.08,0.69-0.16,1.04-0.23c-2.43-2.6-4.72-5.4-3.85-9.22c0.98-4.34,2.46-8.59,6.44-11.23
			c1.11-0.73,1.85-1.58,2.25-2.66c2.16-0.96,4.16-1.93,6.21-2.74c2.26-0.9,4.51,0.35,7.12,0.5c-2.27-2.21-5.47-0.84-7.61-3.02
			c2.44-1.44,4.76,0.86,6.92-0.29c-4.66-2.19-11.12-1.49-17.06,1.87c-1.52,2.13-3.17,4.16-5.06,5.97c-0.56,0.53-1.39,0.82-1.66,1.61
			c-1.27,3.68-3.38,7.14-3.42,11.16c-0.03,2.08,0.41,4.16,0.64,6.3c0.7-0.59,0.11-1.62,1.2-2.3c-0.21,2.6,1.01,4.63,1.77,6.57
			c3.24,3.82,7.12,5.96,12.14,5.95c0.18,1.87,1.14,2.99,2.46,3.48c0.23,2.53,0.43,4.74,0.63,6.92 M156.71,45.18
			c-4.32,0.46-8.3,1.42-12.43-0.38c-0.19-2.5,0.56-4.94,1.32-7.35c1.9-1.4,4.8-0.56,5.83-2.98c1.11-0.24,1.15,0.44,1.26,1.15
			c1.77-0.01,3.61-0.27,5.44,0.8C157.51,39.25,156.69,42.09,156.71,45.18z M154.27,34.12c0.81-0.92,1.59-1.32,2.82-1.18
			C156.29,33.99,155.5,34.38,154.27,34.12z M158.83,30.72c-4.07,1.94-7.47-1.35-11.19-0.15c-0.27-2.26,1.16-3.71,0.68-5.4
			c2.54-0.72,4.9-1.62,7.49-1.94c0.84-2.23,3.12-2.02,5.66-3.41C160.42,24.18,159.6,27.54,158.83,30.72z M168.5,26.64
			c-1.15,0.77-1.92,0.6-2.74-0.47c0.22-2.22,0.58-4.61,1.26-6.95c1.05-0.29,1.83,0.59,2.85,0.04
			C170.73,22.57,169.26,24.62,168.5,26.64z"/>
		<path class="st0" d="M196.53,17.41c-0.82-1.56-2.71-2.19-2.97-3.84c-4.74-2.78-10.87-1.63-13.57,3.11
			c-0.62,1.09-2.05,0.41-2.29,1.64c-0.73,3.15-0.28,6.2,0.7,8.89c2.9,4.32,7.17,7.29,8.72,12.22c2.15,0.81,2.15,0.81,0.97,4.36
			c-2.84,2.31-2.84,2.31-5.85,2.31c-3.17-3.04-1.8-6.81-1.35-10.55c-1.49,0.92-0.97,2.87-2.51,3.52c-0.14-0.61-0.25-1.1-0.37-1.6
			c-1.82-1.21,0.39-2.83-0.12-4.35c-3.9,4.29-2.55,9.02-1.93,13.67c0.76,1.38,1.52,2.76,2.92,3.57c1.83,0.53,3.68,0.26,5.63,0.21
			c-0.65,1.18-1.87,0.85-2.87,1.6c2.78,0.44,5.01-0.27,7.18-1.07c1.64-1.41,3.13-2.86,4.19-4.72c1.69-2.96,2.06-5.86-0.14-8.8
			c-1.47-1.96-2.78-4.03-4.15-6.04c0.39-0.44,0.84-0.79-0.14-1.9c-1.99-1.74-4.76-3.81-5.82-7.71c0.27-1.58,0.52-3.52,2.34-4.76
			c1.31-0.45,2.58-0.43,3.8,0.06c1.82,1.28,2.29,3.54,3.89,4.96c0.69,0.61,0.44,1.61,0.26,2.48c0.6-0.24,0.53-1.06,1.07-1.36
			c0.83,0.89-0.1,2.25,0.98,3.29c1.65-2.9,1.12-5.81,0.34-8.63C195.9,17.74,196.21,17.58,196.53,17.41z"/>
		<path class="st0" d="M19.89,25.93c0-0.7,0-1.2,0-1.67C19.66,24.69,19.29,25.12,19.89,25.93z"/>
		<path class="st0" d="M19.89,24.26c0.04-0.08,0.08-0.16,0.1-0.24c-0.01-0.03-0.02-0.07-0.03-0.1c-0.03,0-0.05,0-0.08,0
			C19.89,24.03,19.89,24.15,19.89,24.26z"/>
		<path class="st0" d="M121.61,40.15c-0.53-0.35-1.09-0.39-1.68-0.3C120.34,40.67,120.91,40.65,121.61,40.15z"/>
		<path class="st0" d="M119.93,39.85c-0.01-0.02-0.02-0.03-0.03-0.05c-0.03,0.01-0.06,0.01-0.1,0.02c0.01,0.01,0.03,0.03,0.04,0.04
			C119.88,39.86,119.91,39.85,119.93,39.85z"/>
		<path class="st0" d="M112.15,1.87C112.2,1.81,112.19,1.82,112.15,1.87L112.15,1.87z"/>
		<path class="st0" d="M112.13,1.91c-0.03,0.05-0.08,0.11-0.12,0.18c0,0.03,0.01,0.06,0.01,0.08c0.02,0,0.04-0.01,0.07-0.02
			C112.1,2.06,112.12,1.97,112.13,1.91z"/>
		<path class="st0" d="M112.13,1.91L112.13,1.91c0-0.01,0-0.03,0.01-0.04C112.13,1.88,112.13,1.89,112.13,1.91z"/>
		<path class="st0" d="M112.13,1.91C112.13,1.91,112.13,1.91,112.13,1.91c0.01-0.01,0.02-0.02,0.02-0.04
			C112.14,1.88,112.14,1.89,112.13,1.91z"/>
		<path class="st0" d="M112.14,1.87C112.15,1.79,112.15,1.81,112.14,1.87L112.14,1.87z"/>
		<path class="st0" d="M168.83,7.32c-0.04,0.4-0.07,0.7-0.09,0.98C169,8.07,169.3,7.85,168.83,7.32z"/>
		<path class="st0" d="M168.74,8.29c-0.04,0.03-0.07,0.06-0.1,0.09c0,0.03,0,0.05,0.01,0.08c0.03,0,0.05-0.01,0.08-0.01
			C168.73,8.41,168.73,8.35,168.74,8.29z"/>
		<path class="st0" d="M105.82,9.07c-0.04,0.03-0.09,0.05-0.13,0.08c0.01,0.04,0.02,0.08,0.03,0.11c0.02-0.01,0.04-0.02,0.06-0.03
			C105.8,9.18,105.81,9.12,105.82,9.07z"/>
		<path class="st0" d="M106.03,8.18c-0.08,0.36-0.15,0.63-0.21,0.89C106.09,8.91,106.28,8.7,106.03,8.18z"/>
		<path class="st0" d="M192.76,25.81c0.04-0.29,0.08-0.54,0.12-0.77C192.71,25.23,192.53,25.42,192.76,25.81z"/>
		<path class="st0" d="M192.87,25.04c0.06-0.07,0.12-0.13,0.15-0.21c0.01-0.05,0.02-0.1,0.03-0.15c-0.04,0.02-0.08,0.04-0.14,0.05
			C192.9,24.83,192.89,24.94,192.87,25.04z"/>
		<path class="st0" d="M4.31,34.29c-0.02,0.01-0.03,0.01-0.05,0.02c0.01,0.02,0.01,0.05,0.01,0.07c0.02-0.01,0.03-0.01,0.04-0.02
			C4.31,34.33,4.32,34.31,4.31,34.29z"/>
		<path class="st0" d="M4.63,33.29c-0.3,0.29-0.41,0.62-0.32,1C4.88,34.11,5.08,33.81,4.63,33.29z"/>
		<path class="st0" d="M178.14,37.38c-0.04,0.02-0.08,0.03-0.13,0.05c0,0.01,0,0.02,0.01,0.03c0.03,0.02,0.06,0.04,0.1,0.06
			C178.13,37.48,178.13,37.43,178.14,37.38z"/>
		<path class="st0" d="M178.31,36.42c-0.06,0.36-0.12,0.66-0.17,0.96C178.56,37.21,178.78,36.97,178.31,36.42z"/>
		<path class="st0" d="M103.71,58.21c0.39-0.49,0-0.75-0.25-1.04C103.41,57.54,103.37,57.91,103.71,58.21z"/>
		<path class="st0" d="M103.46,57.18c0.01-0.06,0.02-0.12,0.02-0.18c-0.04-0.01-0.08-0.02-0.12-0.03c0.01,0.04,0.02,0.08,0.03,0.11
			C103.41,57.11,103.44,57.14,103.46,57.18z"/>
		<path class="st0" d="M38.79,58.01c0.04-0.04,0.07-0.08,0.1-0.13c0-0.03,0.01-0.05,0.01-0.08c-0.03,0-0.07,0-0.09,0.01
			C38.81,57.88,38.8,57.95,38.79,58.01z"/>
		<path class="st0" d="M38.71,58.97c0.04-0.4,0.06-0.69,0.09-0.96C38.59,58.24,38.32,58.48,38.71,58.97z"/>
	</g>
</g>
</svg>
